<svg width="40" height="40" viewBox="0 0 40 40" fill="none" xmlns="http://www.w3.org/2000/svg">
<rect width="40" height="40" rx="8" fill="url(#paint0_linear_4149_161)"/>
<path d="M29.3571 19.699C29.4777 19.7844 29.5802 19.8928 29.6589 20.0179C29.7375 20.143 29.7908 20.2823 29.8156 20.428C29.8404 20.5737 29.8362 20.7228 29.8034 20.8669C29.7705 21.011 29.7096 21.1472 29.6241 21.2677C28.3444 23.0732 26.9851 23.9518 25.635 24.3136C23.8456 24.7931 22.0717 24.3667 20.5138 23.9932C17.914 23.3679 15.8601 22.8748 13.7647 25.8307C13.6792 25.9512 13.5708 26.0537 13.4457 26.1324C13.3207 26.211 13.1813 26.2643 13.0356 26.2891C12.89 26.3139 12.7408 26.3097 12.5968 26.2769C12.4527 26.244 12.3165 26.1831 12.196 26.0977C12.0754 26.0122 11.9729 25.9038 11.8943 25.7787C11.8156 25.6536 11.7624 25.5143 11.7376 25.3686C11.6875 25.0744 11.7564 24.7724 11.929 24.5289C14.9057 20.3343 18.3026 21.1489 21.0396 21.8044C23.6391 22.4288 25.6932 22.9227 27.7884 19.9659C27.8738 19.8454 27.9822 19.7428 28.1073 19.6642C28.2324 19.5855 28.3718 19.5323 28.5174 19.5075C28.6631 19.4827 28.8122 19.4868 28.9563 19.5197C29.1004 19.5525 29.2366 19.6135 29.3571 19.699ZM12.2115 20.0342C14.3067 17.0775 16.3608 17.5714 18.9604 18.1958C20.5167 18.5708 22.2924 18.9966 24.0818 18.5172C25.432 18.1554 26.7912 17.2768 28.0709 15.4712C28.2436 15.2278 28.3124 14.9258 28.2623 14.6316C28.2123 14.3374 28.0474 14.0751 27.8039 13.9025C27.5605 13.7299 27.2585 13.661 26.9643 13.7111C26.6701 13.7612 26.4078 13.926 26.2352 14.1695C24.1398 17.1253 22.086 16.6323 19.4862 16.007C16.753 15.3514 13.3516 14.5343 10.3758 18.7325C10.2032 18.9759 10.1344 19.278 10.1844 19.5721C10.2345 19.8663 10.3994 20.1286 10.6428 20.3012C10.8862 20.4738 11.1883 20.5427 11.4825 20.4926C11.7767 20.4425 12.0389 20.2777 12.2115 20.0342Z" fill="white"/>
<defs>
<linearGradient id="paint0_linear_4149_161" x1="0" y1="0" x2="47.2486" y2="27.5837" gradientUnits="userSpaceOnUse">
<stop stop-color="#81299F"/>
<stop offset="1" stop-color="#33279D"/>
</linearGradient>
</defs>
</svg>
