<svg width="32" height="32" viewBox="0 0 32 32" fill="none" xmlns="http://www.w3.org/2000/svg">
<rect width="32" height="32" rx="6" fill="url(#paint0_linear_4150_195)"/>
<path d="M25.3571 15.6987C25.4776 15.7842 25.5802 15.8925 25.6588 16.0176C25.7375 16.1427 25.7907 16.2821 25.8155 16.4278C25.8403 16.5734 25.8362 16.7226 25.8033 16.8666C25.7705 17.0107 25.7096 17.1469 25.6241 17.2674C24.3443 19.073 22.9851 19.9516 21.6349 20.3134C19.8455 20.7928 18.0716 20.3665 16.5137 19.9929C13.9139 19.3676 11.8601 18.8746 9.76466 21.8304C9.67918 21.951 9.5708 22.0535 9.44571 22.1321C9.32062 22.2108 9.18126 22.264 9.03559 22.2888C8.88992 22.3136 8.74079 22.3095 8.59672 22.2766C8.45265 22.2438 8.31646 22.1829 8.19593 22.0974C8.07539 22.012 7.97287 21.9036 7.89422 21.7785C7.81557 21.6534 7.76233 21.514 7.73754 21.3684C7.68747 21.0742 7.75632 20.7721 7.92894 20.5287C10.9057 16.3341 14.3025 17.1486 17.0395 17.8041C19.6391 18.4285 21.6932 18.9225 23.7883 15.9657C23.8738 15.8451 23.9822 15.7426 24.1073 15.6639C24.2324 15.5853 24.3717 15.532 24.5174 15.5072C24.6631 15.4824 24.8122 15.4866 24.9563 15.5194C25.1004 15.5523 25.2365 15.6132 25.3571 15.6987ZM8.2115 16.034C10.3067 13.0772 12.3608 13.5712 14.9603 14.1956C16.5167 14.5705 18.2924 14.9964 20.0818 14.5169C21.4319 14.1551 22.7912 13.2765 24.0709 11.471C24.2435 11.2275 24.3124 10.9255 24.2623 10.6313C24.2122 10.3371 24.0473 10.0749 23.8039 9.90225C23.5605 9.72963 23.2584 9.66078 22.9643 9.71085C22.6701 9.76092 22.4078 9.9258 22.2352 10.1692C20.1398 13.1251 18.0859 12.6321 15.4861 12.0068C12.753 11.3512 9.35153 10.534 6.37578 14.7322C6.20316 14.9757 6.13431 15.2777 6.18438 15.5719C6.23445 15.8661 6.39934 16.1283 6.64277 16.301C6.8862 16.4736 7.18824 16.5424 7.48243 16.4924C7.77662 16.4423 8.03888 16.2774 8.2115 16.034Z" fill="white"/>
<defs>
<linearGradient id="paint0_linear_4150_195" x1="0" y1="0" x2="37.7989" y2="22.067" gradientUnits="userSpaceOnUse">
<stop stop-color="#81299F"/>
<stop offset="1" stop-color="#33279D"/>
</linearGradient>
</defs>
</svg>
